<svg xmlns="http://www.w3.org/2000/svg" xmlns:xlink="http://www.w3.org/1999/xlink" width="500" zoomAndPan="magnify" viewBox="0 0 375 374.999991" height="500" preserveAspectRatio="xMidYMid meet" version="1.0"><defs><g/><clipPath id="d784c24f48"><path d="M 201.695312 169.933594 L 243.695312 169.933594 L 243.695312 211.933594 L 201.695312 211.933594 Z M 201.695312 169.933594 " clip-rule="nonzero"/></clipPath></defs><g clip-path="url(#d784c24f48)"><path fill="#ff914d" d="M 238.828125 179.289062 C 238.820312 179.292969 238.816406 179.300781 238.808594 179.308594 L 237.285156 181.09375 C 237.113281 181.027344 236.933594 180.996094 236.753906 181.003906 L 235.140625 174.695312 L 238.820312 178.308594 C 239.09375 178.574219 239.097656 179.015625 238.828125 179.289062 Z M 237.644531 185.289062 L 233.597656 181.3125 C 233.671875 180.917969 233.554688 180.492188 233.246094 180.191406 C 232.9375 179.890625 232.511719 179.777344 232.121094 179.859375 L 228.078125 175.890625 C 228.996094 176.21875 229.878906 176.625 230.726562 177.117188 L 235.609375 181.914062 C 235.488281 182.335938 235.597656 182.808594 235.933594 183.136719 C 236.183594 183.382812 236.515625 183.5 236.839844 183.492188 C 237.148438 184.074219 237.414062 184.671875 237.644531 185.289062 Z M 242.257812 187.359375 C 242.636719 187.355469 242.953125 187.664062 242.957031 188.042969 L 242.96875 189.609375 L 239.632812 187.199219 L 242.226562 187.355469 C 242.238281 187.355469 242.246094 187.359375 242.257812 187.359375 Z M 233.976562 190.351562 L 234.90625 189.679688 C 235.375 189.910156 235.960938 189.828125 236.351562 189.433594 C 236.632812 189.144531 236.75 188.753906 236.695312 188.382812 L 237.773438 187.597656 C 238.128906 187.84375 238.582031 187.886719 238.96875 187.722656 L 242.503906 190.277344 Z M 232.242188 186.769531 C 232.183594 186.636719 232.121094 186.5 232.058594 186.371094 L 234.257812 188.246094 C 234.183594 188.523438 234.207031 188.824219 234.332031 189.089844 L 233.054688 190.015625 C 232.960938 188.894531 232.691406 187.804688 232.242188 186.769531 Z M 222.84375 200.378906 C 217.597656 200.425781 213.289062 196.195312 213.242188 190.945312 C 213.207031 187.367188 215.210938 184.054688 218.375 182.410156 C 218.445312 182.394531 218.511719 182.363281 218.566406 182.3125 C 218.574219 182.308594 218.578125 182.308594 218.582031 182.304688 C 218.621094 182.296875 218.65625 182.285156 218.6875 182.269531 C 219.9375 181.679688 221.277344 181.371094 222.671875 181.359375 C 224.65625 181.339844 226.5 181.933594 228.035156 182.960938 L 229.121094 183.804688 C 231.035156 185.527344 232.25 188.011719 232.277344 190.78125 C 232.320312 196.027344 228.089844 200.332031 222.84375 200.378906 Z M 218.976562 175.910156 L 221.023438 177.503906 L 218.761719 180.660156 Z M 216.332031 176.332031 C 216.933594 176.066406 217.550781 175.839844 218.175781 175.652344 L 217.988281 179.824219 Z M 222.394531 178.570312 C 222.296875 178.976562 222.414062 179.425781 222.734375 179.738281 C 223.128906 180.128906 223.714844 180.199219 224.179688 179.957031 L 225.355469 180.875 C 224.484375 180.648438 223.582031 180.539062 222.664062 180.546875 C 221.5625 180.554688 220.488281 180.738281 219.460938 181.082031 L 221.667969 178.003906 Z M 219.234375 171.484375 L 220.226562 173.421875 C 219.773438 173.914062 219.789062 174.683594 220.269531 175.15625 C 220.550781 175.433594 220.929688 175.546875 221.296875 175.503906 L 222.304688 177.46875 L 219.023438 174.917969 Z M 219.75 170.703125 C 219.804688 170.691406 219.863281 170.679688 219.925781 170.679688 L 225.117188 170.632812 L 221.890625 173.269531 C 221.613281 173.0625 221.269531 172.984375 220.945312 173.035156 Z M 225.925781 171.320312 C 225.925781 171.328125 225.925781 171.339844 225.929688 171.347656 L 226.128906 173.882812 C 226.011719 173.941406 225.902344 174.019531 225.804688 174.121094 C 225.398438 174.535156 225.335938 175.160156 225.621094 175.632812 L 223.988281 177.664062 C 223.765625 177.59375 223.53125 177.585938 223.304688 177.640625 L 222.027344 175.144531 L 222.03125 175.140625 C 222.351562 174.8125 222.457031 174.355469 222.347656 173.945312 L 225.875 171.0625 C 225.90625 171.140625 225.925781 171.230469 225.925781 171.320312 Z M 231.140625 181.261719 C 231.175781 181.503906 231.28125 181.738281 231.460938 181.929688 L 229.957031 183.464844 C 229.492188 183.015625 228.992188 182.609375 228.457031 182.257812 L 225.277344 179.785156 Z M 232.222656 182.316406 C 232.371094 182.335938 232.519531 182.328125 232.664062 182.292969 L 234.566406 187.4375 L 230.554688 184.019531 Z M 226.246094 176.15625 C 226.542969 176.273438 226.878906 176.265625 227.175781 176.144531 L 231.402344 180.296875 C 231.359375 180.347656 231.324219 180.402344 231.289062 180.460938 L 224.855469 178.839844 C 224.851562 178.597656 224.78125 178.359375 224.640625 178.152344 Z M 237.292969 186.945312 L 236.316406 187.652344 C 236.054688 187.410156 235.71875 187.296875 235.386719 187.316406 L 233.585938 182.441406 L 237.324219 186.113281 C 237.21875 186.378906 237.207031 186.671875 237.292969 186.945312 Z M 231.570312 176.804688 L 234.035156 174.621094 C 234.042969 174.613281 234.050781 174.609375 234.058594 174.601562 C 234.113281 174.542969 234.175781 174.5 234.246094 174.464844 L 235.941406 181.101562 Z M 234.570312 173.582031 C 234.550781 173.582031 234.53125 173.582031 234.511719 173.582031 C 234.136719 173.59375 233.769531 173.738281 233.488281 174.019531 L 230.921875 176.292969 C 229.96875 175.761719 228.972656 175.320312 227.9375 174.984375 C 227.9375 174.664062 227.8125 174.347656 227.566406 174.105469 C 227.386719 173.929688 227.164062 173.816406 226.933594 173.769531 L 226.738281 171.296875 C 226.730469 170.855469 226.53125 170.460938 226.222656 170.191406 C 226.210938 170.179688 226.199219 170.167969 226.183594 170.160156 C 225.921875 169.945312 225.585938 169.816406 225.21875 169.820312 L 219.917969 169.867188 C 219.554688 169.871094 219.222656 170.003906 218.960938 170.222656 C 218.949219 170.234375 218.933594 170.246094 218.921875 170.257812 C 218.617188 170.535156 218.425781 170.929688 218.425781 171.371094 L 218.21875 174.792969 C 217.363281 175.03125 216.523438 175.34375 215.71875 175.71875 C 215.683594 175.722656 215.644531 175.734375 215.609375 175.75 C 215.175781 175.957031 214.75 176.183594 214.335938 176.425781 L 211.726562 174.199219 C 211.136719 173.628906 210.1875 173.640625 209.609375 174.230469 L 205.894531 178.011719 C 205.316406 178.601562 205.320312 179.546875 205.902344 180.128906 L 208.175781 182.695312 C 207.484375 183.929688 206.953125 185.246094 206.59375 186.609375 L 203.179688 186.878906 C 202.355469 186.894531 201.695312 187.574219 201.703125 188.398438 L 201.75 193.699219 C 201.757812 194.523438 202.429688 195.191406 203.253906 195.191406 L 206.671875 195.398438 C 207.054688 196.757812 207.609375 198.0625 208.324219 199.285156 L 206.097656 201.890625 C 205.527344 202.484375 205.539062 203.429688 206.128906 204.007812 L 209.910156 207.722656 C 210.5 208.300781 211.445312 208.296875 212.03125 207.714844 L 214.597656 205.445312 C 215.832031 206.136719 217.144531 206.667969 218.507812 207.023438 L 218.777344 210.441406 C 218.792969 211.261719 219.472656 211.925781 220.296875 211.917969 L 225.597656 211.871094 C 226.425781 211.863281 227.089844 211.1875 227.089844 210.367188 L 227.300781 206.945312 C 228.65625 206.5625 229.960938 206.007812 231.183594 205.292969 L 233.789062 207.519531 C 234.382812 208.089844 235.328125 208.078125 235.910156 207.488281 L 239.625 203.707031 C 240.203125 203.117188 240.195312 202.171875 239.613281 201.589844 L 237.34375 199.023438 C 238.035156 197.789062 238.566406 196.476562 238.921875 195.109375 L 242.339844 194.839844 C 243.164062 194.824219 243.824219 194.144531 243.816406 193.320312 L 243.792969 190.6875 L 243.792969 190.671875 L 243.789062 190.40625 L 243.769531 188.035156 C 243.761719 187.210938 243.085938 186.546875 242.265625 186.542969 L 239.714844 186.390625 C 239.675781 186.132812 239.554688 185.882812 239.355469 185.683594 C 239.125 185.457031 238.828125 185.339844 238.527344 185.328125 C 238.269531 184.601562 237.960938 183.890625 237.605469 183.203125 C 237.636719 183.175781 237.667969 183.148438 237.695312 183.121094 C 238.09375 182.714844 238.160156 182.105469 237.894531 181.632812 L 239.417969 179.847656 C 239.988281 179.253906 239.976562 178.304688 239.390625 177.726562 L 235.605469 174.011719 C 235.320312 173.730469 234.945312 173.585938 234.570312 173.582031 " fill-opacity="1" fill-rule="nonzero"/></g><g fill="#ffffff" fill-opacity="1"><g transform="translate(12.628116, 211.932555)"><g><path d="M 26.15625 -32.328125 L 44.609375 -32.328125 C 44.554688 -29.660156 44.488281 -27.398438 44.40625 -25.546875 C 44.332031 -23.691406 44.21875 -22.066406 44.0625 -20.671875 C 43.90625 -19.285156 43.695312 -18.050781 43.4375 -16.96875 C 43.1875 -15.894531 42.878906 -14.816406 42.515625 -13.734375 C 41.742188 -11.578125 40.6875 -9.609375 39.34375 -7.828125 C 38.007812 -6.054688 36.492188 -4.523438 34.796875 -3.234375 C 33.109375 -1.953125 31.257812 -0.960938 29.25 -0.265625 C 27.238281 0.421875 25.179688 0.765625 23.078125 0.765625 C 19.890625 0.765625 16.984375 0.113281 14.359375 -1.1875 C 11.734375 -2.5 9.46875 -4.328125 7.5625 -6.671875 C 5.65625 -9.015625 4.175781 -11.816406 3.125 -15.078125 C 2.070312 -18.347656 1.546875 -21.941406 1.546875 -25.859375 C 1.546875 -29.660156 2.054688 -33.164062 3.078125 -36.375 C 4.109375 -39.59375 5.523438 -42.382812 7.328125 -44.75 C 9.128906 -47.125 11.273438 -48.96875 13.765625 -50.28125 C 16.265625 -51.59375 18.984375 -52.25 21.921875 -52.25 C 23.097656 -52.25 24.1875 -52.144531 25.1875 -51.9375 C 26.195312 -51.726562 27.472656 -51.34375 29.015625 -50.78125 L 30.328125 -52.484375 L 39.59375 -45.609375 L 29.859375 -33.71875 C 28.679688 -35.363281 27.613281 -36.507812 26.65625 -37.15625 C 25.707031 -37.800781 24.566406 -38.125 23.234375 -38.125 C 21.015625 -38.125 19.285156 -37.054688 18.046875 -34.921875 C 16.816406 -32.785156 16.203125 -29.789062 16.203125 -25.9375 C 16.203125 -21.757812 16.832031 -18.539062 18.09375 -16.28125 C 19.351562 -14.019531 21.191406 -12.890625 23.609375 -12.890625 C 25.515625 -12.890625 27.046875 -13.570312 28.203125 -14.9375 C 29.359375 -16.300781 30.066406 -18.21875 30.328125 -20.6875 L 23.609375 -20.6875 Z M 26.15625 -32.328125 "/></g></g></g><g fill="#ffffff" fill-opacity="1"><g transform="translate(58.00293, 211.932555)"><g><path d="M 29.015625 -0.390625 C 27.421875 0.0234375 25.953125 0.320312 24.609375 0.5 C 23.273438 0.675781 21.890625 0.765625 20.453125 0.765625 C 16.898438 0.765625 13.898438 0.160156 11.453125 -1.046875 C 9.015625 -2.253906 6.921875 -4.171875 5.171875 -6.796875 C 2.648438 -10.546875 1.390625 -14.738281 1.390625 -19.375 C 1.390625 -22.050781 1.800781 -24.546875 2.625 -26.859375 C 3.445312 -29.171875 4.585938 -31.175781 6.046875 -32.875 C 7.515625 -34.570312 9.226562 -35.910156 11.1875 -36.890625 C 13.144531 -37.867188 15.28125 -38.359375 17.59375 -38.359375 C 22.84375 -38.359375 26.832031 -35.988281 29.5625 -31.25 C 31.769531 -27.289062 32.875 -22.765625 32.875 -17.671875 C 32.875 -17.566406 32.875 -17.320312 32.875 -16.9375 C 32.875 -16.550781 32.847656 -16.15625 32.796875 -15.75 L 14.359375 -15.75 C 15.078125 -13.789062 16.050781 -12.398438 17.28125 -11.578125 C 18.519531 -10.753906 20.296875 -10.34375 22.609375 -10.34375 C 23.953125 -10.34375 25.445312 -10.484375 27.09375 -10.765625 C 28.738281 -11.046875 30.226562 -11.445312 31.5625 -11.96875 Z M 20.84375 -23.234375 C 20.582031 -25.035156 20.179688 -26.332031 19.640625 -27.125 C 19.097656 -27.925781 18.335938 -28.328125 17.359375 -28.328125 C 16.429688 -28.328125 15.644531 -27.863281 15 -26.9375 C 14.363281 -26.007812 13.992188 -24.773438 13.890625 -23.234375 Z M 20.84375 -23.234375 "/></g></g></g><g fill="#ffffff" fill-opacity="1"><g transform="translate(92.03404, 211.932555)"><g><path d="M 16.203125 -0.15625 C 13.835938 -0.257812 12.023438 -0.503906 10.765625 -0.890625 C 9.503906 -1.273438 8.304688 -1.984375 7.171875 -3.015625 C 5.273438 -4.710938 3.835938 -6.921875 2.859375 -9.640625 C 1.878906 -12.367188 1.390625 -15.507812 1.390625 -19.0625 C 1.390625 -21.894531 1.722656 -24.46875 2.390625 -26.78125 C 3.054688 -29.09375 4.003906 -31.070312 5.234375 -32.71875 C 6.472656 -34.363281 7.976562 -35.625 9.75 -36.5 C 11.53125 -37.375 13.503906 -37.8125 15.671875 -37.8125 C 16.847656 -37.8125 17.910156 -37.679688 18.859375 -37.421875 C 19.816406 -37.171875 20.8125 -36.757812 21.84375 -36.1875 L 21.84375 -37.578125 L 34.03125 -37.578125 L 34.03125 -12.34375 L 36.734375 -12.34375 L 34.03125 0 L 21.375 0 L 21.375 -11.34375 L 18.828125 0 Z M 21.375 -19.609375 C 21.375 -20.523438 21.359375 -21.28125 21.328125 -21.875 C 21.304688 -22.46875 21.253906 -22.957031 21.171875 -23.34375 C 21.097656 -23.726562 21.007812 -24.035156 20.90625 -24.265625 C 20.8125 -24.503906 20.660156 -24.722656 20.453125 -24.921875 C 19.890625 -25.546875 19.191406 -25.859375 18.359375 -25.859375 C 17.179688 -25.859375 16.234375 -25.25 15.515625 -24.03125 C 14.796875 -22.820312 14.4375 -21.242188 14.4375 -19.296875 C 14.4375 -14.609375 16.257812 -12.265625 19.90625 -12.265625 C 20.007812 -12.265625 20.210938 -12.265625 20.515625 -12.265625 C 20.828125 -12.265625 21.113281 -12.289062 21.375 -12.34375 Z M 21.375 -19.609375 "/></g></g></g><g fill="#ffffff" fill-opacity="1"><g transform="translate(129.151874, 211.932555)"><g><path d="M 3.234375 -24.921875 L 0.390625 -24.921875 L 3.234375 -37.578125 L 15.890625 -37.578125 L 15.890625 -34.1875 C 16.671875 -35.425781 17.613281 -36.328125 18.71875 -36.890625 C 19.820312 -37.453125 21.222656 -37.734375 22.921875 -37.734375 C 23.179688 -37.734375 23.4375 -37.734375 23.6875 -37.734375 C 23.945312 -37.734375 24.257812 -37.679688 24.625 -37.578125 L 21.84375 -24.921875 C 21.070312 -25.335938 20.398438 -25.546875 19.828125 -25.546875 C 19.210938 -25.546875 18.617188 -25.398438 18.046875 -25.109375 C 17.484375 -24.828125 17.050781 -24.457031 16.75 -24 C 16.59375 -23.738281 16.445312 -23.453125 16.3125 -23.140625 C 16.1875 -22.835938 16.097656 -22.441406 16.046875 -21.953125 C 15.992188 -21.460938 15.953125 -20.84375 15.921875 -20.09375 C 15.898438 -19.351562 15.890625 -18.414062 15.890625 -17.28125 L 15.890625 0 L 3.234375 0 Z M 3.234375 -24.921875 "/></g></g></g><path stroke-linecap="butt" transform="matrix(0.75, 0, 0, 0.75, 159.05992, 134.120588)" fill="none" stroke-linejoin="miter" d="M 4.524274 52.104844 L 0.50344 52.104844 L 4.524274 34.042343 L 22.612817 34.042343 L 22.612817 58.130886 L 33.737818 58.130886 L 33.737818 34.042343 L 51.826361 34.042343 L 51.826361 101.000681 L 33.737818 101.000681 L 33.737818 75.901721 L 22.612817 75.901721 L 22.612817 101.000681 L 4.524274 101.000681 Z M 4.524274 52.104844 " stroke="#ff914d" stroke-width="3.764925" stroke-opacity="1" stroke-miterlimit="4"/><path stroke-linecap="butt" transform="matrix(0.75, 0, 0, 0.75, 159.05992, 134.120588)" fill="none" stroke-linejoin="miter" d="M 143.258658 86.245472 L 139.951366 101.000681 C 139.623241 101.000681 139.305533 100.985056 138.993033 100.948598 C 138.701366 100.917348 138.368033 100.901723 137.993033 100.901723 C 137.633658 100.901723 137.164908 100.901723 136.591991 100.901723 C 136.024283 100.901723 135.269074 100.901723 134.336783 100.901723 C 131.399282 100.901723 129.055532 100.485056 127.305532 99.651723 C 125.571157 98.818389 124.133657 97.427764 122.993032 95.485056 C 122.519074 94.682972 122.149282 93.948597 121.888865 93.28193 C 121.628448 92.610055 121.420115 91.776722 121.274282 90.78193 C 121.144073 89.766305 121.06074 88.474638 121.02949 86.90693 C 120.99824 85.323597 120.982615 83.261096 120.982615 80.729846 L 120.982615 68.573596 L 117.253448 68.573596 L 120.982615 52.104844 L 137.451366 52.104844 L 137.451366 72.396512 C 137.451366 74.474638 137.466991 76.146513 137.498241 77.422554 C 137.534699 78.677763 137.565949 79.71943 137.597199 80.537138 C 137.633658 81.334013 137.696158 81.93818 137.795116 82.349638 C 137.894075 82.740263 138.050325 83.068388 138.258658 83.328805 C 138.586783 83.870472 139.118033 84.292347 139.852408 84.604847 C 140.586783 84.896513 141.357616 85.042347 142.1597 85.042347 C 142.289908 85.042347 142.435741 85.042347 142.5972 85.042347 C 142.779492 85.042347 142.998242 85.011097 143.258658 84.948597 L 143.258658 52.104844 L 159.732618 52.104844 L 159.732618 84.948597 L 163.232618 84.948597 L 159.732618 101.000681 L 143.258658 101.000681 Z M 168.472202 82.839221 C 170.743035 84.37568 172.612827 85.479847 174.081577 86.146513 C 175.555535 86.818388 176.862827 87.151722 178.003452 87.151722 C 179.670119 87.151722 180.503452 86.516305 180.503452 85.240263 C 180.503452 84.636097 180.216994 84.089222 179.649286 83.599638 C 179.076369 83.09443 177.925327 82.396513 176.190952 81.516305 C 169.493035 78.245471 166.144076 73.469429 166.144076 67.177762 C 166.144076 64.823595 166.560743 62.667345 167.394076 60.709012 C 168.243035 58.729845 169.420118 57.037136 170.920118 55.630886 C 172.425327 54.229845 174.216994 53.125678 176.28991 52.323594 C 178.362827 51.505886 180.644077 51.099636 183.128452 51.099636 C 184.190953 51.099636 185.216994 51.172553 186.216994 51.318386 C 187.227411 51.448594 188.269078 51.646511 189.32637 51.906928 C 190.409703 52.167344 191.524286 52.537136 192.685745 53.011094 C 193.862828 53.485053 195.185745 54.05797 196.654495 54.724636 L 193.664912 68.870471 C 189.841995 66.662137 186.961786 65.55797 185.013869 65.55797 C 184.493036 65.55797 184.045119 65.729845 183.664911 66.073595 C 183.305536 66.40172 183.128452 66.834012 183.128452 67.375679 C 183.128452 67.698595 183.159702 67.969429 183.227411 68.18297 C 183.289911 68.375679 183.534703 68.630887 183.961786 68.943387 C 184.404494 69.235054 185.086786 69.651721 186.019078 70.193387 C 186.966994 70.714221 188.305536 71.485054 190.039911 72.495471 C 195.399287 75.438179 198.07637 79.818388 198.07637 85.630888 C 198.07637 88.052763 197.623245 90.25068 196.706578 92.224639 C 195.805537 94.188181 194.539912 95.912139 192.909703 97.396514 C 191.274286 98.865264 189.32637 100.005889 187.076369 100.802764 C 184.836786 101.604848 182.378452 102.005889 179.696161 102.005889 C 175.024285 102.005889 170.03991 100.932973 164.748243 98.792347 Z M 236.815956 100.511098 C 234.743039 101.031931 232.831581 101.406931 231.081581 101.636098 C 229.352414 101.880889 227.545122 102.005889 225.664914 102.005889 C 221.055538 102.005889 217.159705 101.219431 213.972205 99.651723 C 210.805538 98.068389 208.076371 95.573597 205.789912 92.177764 C 202.519079 87.292347 200.88887 81.834013 200.88887 75.802763 C 200.88887 72.323596 201.42012 69.078804 202.477412 66.073595 C 203.560745 63.052762 205.045121 60.438178 206.940954 58.229845 C 208.852413 56.02672 211.081579 54.287136 213.633663 53.011094 C 216.180538 51.735053 218.95658 51.099636 221.966997 51.099636 C 228.795122 51.099636 233.982622 54.177761 237.529498 60.33922 C 240.404498 65.500679 241.841998 71.391304 241.841998 78.011096 C 241.841998 78.141304 241.841998 78.459013 241.841998 78.964221 C 241.841998 79.474638 241.810748 79.985055 241.74304 80.511096 L 217.748246 80.511096 C 218.680538 83.057971 219.946163 84.870472 221.55033 85.953805 C 223.164913 87.011097 225.477414 87.542347 228.482622 87.542347 C 230.232622 87.542347 232.175331 87.365263 234.315956 87.005888 C 236.456581 86.630888 238.394081 86.104847 240.128456 85.43818 Z M 226.180539 70.781929 C 225.836789 68.443387 225.315955 66.761095 224.61283 65.729845 C 223.909705 64.68297 222.930538 64.162137 221.670122 64.162137 C 220.461788 64.162137 219.430538 64.766304 218.58158 65.974637 C 217.748246 67.167345 217.26908 68.771512 217.138871 70.781929 Z M 257.383666 81.417346 C 260.190958 81.417346 262.399291 82.354846 263.998249 84.235055 C 265.618041 86.115263 266.425333 88.65693 266.425333 91.860055 C 266.425333 95.078806 265.565958 97.625681 263.852416 99.505889 C 262.154499 101.365264 259.899291 102.297556 257.086791 102.297556 C 254.279499 102.297556 252.029499 101.365264 250.347207 99.505889 C 248.68054 97.625681 247.847207 95.141306 247.847207 92.052764 C 247.847207 88.849639 248.71179 86.276722 250.446165 84.334013 C 252.196165 82.391305 254.508666 81.417346 257.383666 81.417346 Z M 257.383666 81.417346 " stroke="#ff914d" stroke-width="3.764925" stroke-opacity="1" stroke-miterlimit="4"/></svg>